<?xml version="1.0" encoding="utf-8"?>
<!-- Generator: Adobe Illustrator 22.1.0, SVG Export Plug-In . SVG Version: 6.00 Build 0)  -->
<svg version="1.1" id="Layer_1" xmlns="http://www.w3.org/2000/svg" xmlns:xlink="http://www.w3.org/1999/xlink" x="0px" y="0px"
	 viewBox="0 0 717.7 1332.2" style="enable-background:new 0 0 717.7 1332.2;" xml:space="preserve">
<style type="text/css">
	.st0{fill:#031926;}
	.st1{fill:none;stroke:#031926;stroke-width:9;stroke-linecap:round;stroke-linejoin:round;stroke-miterlimit:10;}
</style>
<g>
	<g>
		<g>
			<path class="st0" d="M410.4,228.9c-9.5-6-20.8-9-32-8.3c-10.4,0.6-22.8,3.8-28.4,13.4c-2.9,5,4.9,9.6,7.8,4.5
				c4.1-7.1,14.8-8.9,22.3-9c9.2-0.2,18.1,2.3,25.8,7.2C410.7,239.8,415.2,232,410.4,228.9L410.4,228.9z"/>
		</g>
	</g>
</g>
<g>
	<g>
		<g>
			<path class="st0" d="M501.3,252.2c-4-9.3-13.1-15.7-22.8-18c-5.3-1.3-10.8-1.6-16.2-1.1c-5,0.4-10.3,1.5-13.8,5.5
				c-1.6,1.8-1.8,4.6,0,6.4c1.6,1.6,4.8,1.9,6.4,0c2.2-2.6,5.9-2.8,9.2-3c4.4-0.2,8.7,0,12.9,1.1c7.3,2,13.5,6.6,16.6,13.7
				c1,2.2,4.2,2.7,6.2,1.6C502,257,502.3,254.4,501.3,252.2L501.3,252.2z"/>
		</g>
	</g>
</g>
<g>
	<g>
		<g>
			<path class="st0" d="M366.9,238.8c-1.3,14-3.7,27.9-7,41.6c-1.4,5.6,7.3,8,8.7,2.4c3.5-14.5,5.9-29.2,7.3-44
				c0.2-2.4-2.2-4.5-4.5-4.5C368.8,234.3,367.2,236.3,366.9,238.8L366.9,238.8z"/>
		</g>
	</g>
</g>
<g>
	<g>
		<g>
			<path class="st0" d="M455.2,250.8c-2.7,14.1-5.6,28.2-8.7,42.2c-1.3,5.6,7.4,8,8.7,2.4c3.2-14,6.1-28.1,8.7-42.2
				c0.4-2.4-0.7-4.9-3.1-5.5C458.5,247,455.6,248.4,455.2,250.8L455.2,250.8z"/>
		</g>
	</g>
</g>
<g>
	<g>
		<g>
			<path class="st0" d="M420.1,283.5c2.1,13.4,4.2,26.9,6.2,40.3c0.7,4.6,1.3,9.9-2.6,13.2c-3,2.5-6.8,3-10.3,1.6
				c-2.3-0.9-4.9,1-5.5,3.1c-0.7,2.6,0.9,4.6,3.1,5.5c5.4,2.2,11.9,1.2,16.7-2c5.6-3.8,8.3-9.7,8.2-16.4c-0.2-7.8-2.1-15.7-3.3-23.4
				c-1.2-8.1-2.5-16.2-3.7-24.3c-0.4-2.4-3.4-3.7-5.5-3.1C420.7,278.7,419.7,281.1,420.1,283.5L420.1,283.5z"/>
		</g>
	</g>
</g>
<g>
	<g>
		<g>
			<path class="st0" d="M398.3,363.4c-23.5-0.9-45.3-15.3-55.8-36.3c-2.6-5.2-10.4-0.6-7.8,4.5c11.9,23.8,37.1,39.7,63.6,40.7
				C404.1,372.6,404.1,363.6,398.3,363.4L398.3,363.4z"/>
		</g>
	</g>
</g>
<g>
	<g>
		<g>
			<path class="st0" d="M415.7,194.9c-16.9-15.4-43.9-15.9-61.5-1.4c-1.9,1.5-1.6,4.8,0,6.4c1.9,1.9,4.5,1.6,6.4,0
				c13.7-11.3,35.7-10.5,48.8,1.4C413.6,205.1,420,198.8,415.7,194.9L415.7,194.9z"/>
		</g>
	</g>
</g>
<g>
	<g>
		<g>
			<path class="st0" d="M499.2,216.5c-13.2-7.1-27.9-10.8-42.8-10.8c-5.8,0-5.8,9,0,9c13.4-0.1,26.5,3.2,38.3,9.5
				C499.8,227,504.3,219.2,499.2,216.5L499.2,216.5z"/>
		</g>
	</g>
</g>
<g>
	<g>
		<g>
			<path class="st0" d="M500.6,138.9c0,1-0.1,1.6-0.6,2.5c-0.8,1.3-1.3,1.9-2.7,3.1c-2.2,1.9-5.6,3.5-8.5,4.7
				c-7.3,2.9-15.1,4.4-22.9,5.5c-12,1.7-24.1,2.6-36.1,2.8c-11.6,0.2-23.2-0.6-34.8-0.5c-11.4,0.1-23,1.2-33.7,5.4
				c-8.2,3.2-15.7,7.9-22.2,13.9c-12.8,11.8-21.1,28-25.8,44.6c-12.4,43.4,2,87.5,5.8,130.9c1.7,19.2,1.1,38.4-5.9,56.5
				c-5.6,14.4-15.1,26.9-25.5,38.2c-12.1,13-25.4,24.8-37.9,37.3c-14.6,14.5-29.9,31.8-26.7,54c0.7,4.9,2.4,9.6,5.3,13.7
				c1.4,2,3.9,2.9,6.2,1.6c2-1.2,3-4.1,1.6-6.2c-5.5-8-5.4-17.9-2.4-26.8c3.3-9.5,10.2-17.5,17.1-24.6c12.6-13.1,26.3-25.1,39-38.2
				c11.1-11.4,21.5-23.9,28.5-38.3c7.9-16.3,11.1-34.3,10.7-52.4c-0.5-23.9-5.4-47.5-8.7-71.1c-2.9-20.5-4.8-41.6-0.7-62.1
				c3.2-16.4,9.7-32.9,20.9-45.6c5.5-6.2,12-11.4,19.4-15.1c9.2-4.6,19.6-6.2,29.8-6.6c11.6-0.5,23.3,0.4,34.9,0.4
				c12,0,24-0.7,35.9-2.1c8.8-1,17.6-2.3,26.1-4.9c6.9-2.2,14.7-5.2,19.5-10.9c2.3-2.8,3.7-6,3.7-9.7
				C509.7,133.1,500.7,133.1,500.6,138.9L500.6,138.9z"/>
		</g>
	</g>
</g>
<g>
	<g>
		<g>
			<path class="st0" d="M248.9,378.9c0.6,24.7-17.3,44.8-30.7,63.8c-14.8,21.1-27.3,45.3-27.5,71.7c-0.1,13.9,3.3,28,11,39.8
				c3.1,4.8,10.9,0.3,7.8-4.5c-13.6-20.9-11.4-47.4-2.3-69.6c4.9-11.8,11.7-22.7,19-33.1c6.9-9.8,14.3-19.3,20.3-29.7
				c6.8-11.7,11.6-24.6,11.3-38.2C257.8,373.2,248.8,373.1,248.9,378.9L248.9,378.9z"/>
		</g>
	</g>
</g>
<g>
	<g>
		<g>
			<path class="st0" d="M285,320.3c6.8,19.8,7.6,41.2,2.6,61.5c-2.6,10.3-6.5,20.1-12,29.2c-5.7,9.5-12.9,17.6-20.8,25.3
				c-9.7,9.3-20,18-28.9,28.1c-3.8,4.3,2.5,10.7,6.4,6.4c15.9-18.2,36.4-32,49.5-52.6c11.9-18.8,18.2-41.2,18.1-63.4
				c0-12.5-2.1-25-6.2-36.8C291.8,312.5,283.1,314.8,285,320.3L285,320.3z"/>
		</g>
	</g>
</g>
<g>
	<g>
		<g>
			<path class="st0" d="M487.5,81.2c-21.1-9.3-42.9-17.3-65.4-22.6c-17.1-4-34.8-6.5-52.5-6.1c-13.9,0.4-27.8,2.5-40.9,7.3
				c-11.4,4.2-21.9,10.2-31.3,18c-8.4,7-15.7,15.5-21.7,24.6c-5.9,8.9-10.5,18.5-14.4,28.4c-3.5,9-6.2,18.3-8.2,27.8
				c-1.8,8.5-3.2,17.1-4.1,25.8c-0.6,6.2-1.1,12.4-1.2,18.6c-0.1,3-0.4,6.2,0,9.1c0,0.1,0,0.3,0,0.4c0.4-1.1,0.9-2.1,1.3-3.2
				c-22.3,27.6-48.3,52-69.4,80.6c-10.2,13.8-19,28.7-24.9,44.8c-6.7,18.2-9.1,37.6-7.5,56.9c2,23.9,9.3,46.9,18.6,68.8
				c0.9,2.2,4.3,2.7,6.2,1.6c2.3-1.4,2.6-3.9,1.6-6.2c-15.1-35.6-24.2-75.4-12.2-113.2c10.1-31.7,32.3-57.9,54.3-82.2
				c11.4-12.6,23.1-25.1,34.1-38.1c1.3-1.6,2.6-3.1,3.9-4.7c1.3-1.6,2.9-3.1,3-5.3c0-0.1,0-0.2,0-0.2c0-0.5,0-1,0-1.5
				c-0.1-6,0.1-12,0.5-17.9c0.3-4.8,0.8-9.6,1.4-14.4c0-0.4,0.2-1.5,0,0c0-0.3,0.1-0.6,0.1-1c0.1-0.7,0.2-1.4,0.3-2.1
				c0.2-1.4,0.4-2.8,0.7-4.1c0.5-2.9,1-5.7,1.6-8.6c1.3-6.1,2.8-12.2,4.6-18.1c1-3.1,2-6.2,3.1-9.3c0.6-1.6,1.2-3.1,1.8-4.6
				c0.2-0.4,0.3-0.8,0.5-1.1c0.1-0.1,0.6-1.4,0.3-0.7c-0.3,0.7,0.3-0.6,0.3-0.7c0.2-0.4,0.4-0.8,0.6-1.3c2.8-6.2,6-12.3,9.6-18.1
				c1.9-2.9,3.9-5.8,6-8.5c-0.7,0.9,0.1-0.1,0.3-0.3c0.3-0.3,0.5-0.7,0.8-1c0.6-0.7,1.2-1.5,1.8-2.2c1.1-1.3,2.2-2.6,3.4-3.8
				c2.5-2.6,5.1-5.2,7.8-7.5c0.6-0.5,1.3-1.1,1.9-1.6c0.3-0.3,0.7-0.6,1-0.8c0.2-0.2,1.6-1.2,0.7-0.5c1.5-1.1,3-2.2,4.5-3.2
				c3.1-2.1,6.4-4.1,9.7-5.8c1.7-0.9,3.5-1.8,5.3-2.6c0.4-0.2,0.9-0.4,1.3-0.6c0.2-0.1,0.4-0.2,0.7-0.3c-0.1,0.1-0.9,0.4-0.1,0
				c1-0.4,1.9-0.8,2.9-1.1c17.8-6.7,35.3-8.3,54.3-7c25.9,1.7,51.9,9,76.4,18.2c7.4,2.8,14.7,5.8,21.9,8.9c2.2,1,4.8,0.7,6.2-1.6
				C490.2,85.5,489.7,82.2,487.5,81.2L487.5,81.2z"/>
		</g>
	</g>
</g>
<g>
	<g>
		<g>
			<path class="st0" d="M485.1,109.5c15.7,19.3,22.1,45.6,24.4,69.8c2.6,27.2,0.1,54.4-7.3,80.7c-7.8,27.7-10.8,57.5-24.4,83.2
				c-13.7,25.8-39.4,44.9-68.2,50.2c-27.3,5.1-56.8-4.6-74.4-26.4c-2.1-2.6-4-5.4-5.6-8.3c-2.9-5-10.7-0.5-7.8,4.5
				c15.1,26.1,45.4,41.3,75.2,40.5c31.5-0.9,62-18.1,80.6-43.3c18.3-24.7,23-56.1,30-85.3c3.3-14,7.6-27.5,9.6-41.8
				c2.1-14.6,2.8-29.4,2.1-44.1c-1.4-27-7-55.8-22.2-78.7c-1.7-2.6-3.6-5.2-5.6-7.6c-1.5-1.9-4.8-1.6-6.4,0
				C483.2,105,483.6,107.6,485.1,109.5L485.1,109.5z"/>
		</g>
	</g>
</g>
<g>
	<g>
		<g>
			<path class="st0" d="M286.1,206.1c-2.3,29.2-25,51.2-44.2,71c-10.5,10.8-20.8,21.8-28.8,34.7c-7.6,12.2-13.2,25.9-16.4,39.9
				c-3.7,15.9-4.3,32.3-2.1,48.5c0.3,2.4,3.4,3.7,5.5,3.1c2.6-0.7,3.5-3.1,3.1-5.5c-3.8-27.7,2.4-56.6,16.9-80.4
				c15.4-25.3,40.1-43,57.3-66.9c9.4-13.1,16.3-28.1,17.6-44.4c0.2-2.4-2.2-4.5-4.5-4.5C288,201.6,286.3,203.6,286.1,206.1
				L286.1,206.1z"/>
		</g>
	</g>
</g>
<g>
	<g>
		<path class="st1" d="M546,398.7c-4.7-7.4-10.9-19-14.5-34c-10.7-45.4,9.5-51.5,21-110.8c6.3-32.2,5.5-172.8-64.1-167.1"/>
	</g>
</g>
<g>
	<g>
		<path d="M-63.4-313.5c5.8,0,5.8-9,0-9C-69.2-322.5-69.2-313.5-63.4-313.5L-63.4-313.5z"/>
	</g>
</g>
<g>
	<g>
		<g>
			<path class="st0" d="M407,397.3c-3.4,15.6-5.8,31.5-7,47.4c-0.2,2.4,2.2,4.5,4.5,4.5c2.6,0,4.3-2.1,4.5-4.5
				c1.2-15.2,3.5-30.2,6.7-45C417,394.1,408.3,391.7,407,397.3L407,397.3z"/>
		</g>
	</g>
</g>
<g>
	<g>
		<g>
			<path class="st0" d="M431.1,440.7c0.1,19.4-18.5,31.3-35.9,33.6c-19,2.5-39.3-2.4-56.1-11.4c-9.6-5.2-18.2-11.8-25.7-19.7
				c-4-4.2-10.4,2.2-6.4,6.4c14.7,15.5,34,26.6,54.8,31.4c21.1,5,46.4,4.7,63.7-10.1c8.8-7.5,14.6-18.6,14.6-30.2
				C440.1,434.9,431.1,434.9,431.1,440.7L431.1,440.7z"/>
		</g>
	</g>
</g>
<g>
	<g>
		<g>
			<path class="st0" d="M430.2,439.1c-8-0.1-15.8-2.9-21.8-8.2c-4.3-3.8-10.7,2.5-6.4,6.4c7.8,6.9,17.7,10.8,28.2,10.9
				C436,448.1,436,439.1,430.2,439.1L430.2,439.1z"/>
		</g>
	</g>
</g>
<g>
	<g>
		<g>
			<path class="st0" d="M353.6,504.5c-13.3-4.3-25.9-11-37.1-19.5c-5.5-4.3-10.7-9-15.4-14.2c-5.1-5.6-9.5-12-15.4-16.8
				c-1.9-1.5-4.5-1.8-6.4,0c-1.6,1.6-1.9,4.8,0,6.4c6.1,4.9,10.5,11.4,15.7,17.1c5.1,5.6,10.8,10.6,16.8,15.2
				c11.8,9,25.2,15.9,39.3,20.5C356.7,515,359.1,506.3,353.6,504.5L353.6,504.5z"/>
		</g>
	</g>
</g>
<g>
	<g>
		<g>
			<path class="st0" d="M455.4,442.9c-2.7,15-5.6,30.6-17.2,41.6c-11.2,10.6-26,18.1-41,21.6c-8.5,2-17.2,2.4-25.8,1.5
				c-2.4-0.3-4.5,2.3-4.5,4.5c0,2.7,2.1,4.2,4.5,4.5c16.9,1.9,33.9-1.9,49-9.3c15.2-7.4,29.6-18.3,36.3-34.2
				c3.8-8.9,5.6-18.3,7.3-27.8c0.4-2.4-0.6-4.8-3.1-5.5C458.8,439.1,455.8,440.5,455.4,442.9L455.4,442.9z"/>
		</g>
	</g>
</g>
<g>
	<g>
		<g>
			<path class="st0" d="M515.2,450.3c-12.4-4.8-24.9-9-38-11.3c-6.7-1.1-13.4-1.9-20.2-2.6c-7.6-0.7-15.7-2.1-22.7,1.6
				c-5.1,2.7-0.6,10.5,4.5,7.8c2.9-1.6,6.3-1.4,9.5-1.2c3.5,0.2,6.9,0.6,10.4,0.9c6.1,0.6,12.1,1.3,18.2,2.4
				c12.4,2.3,24.3,6.3,36,10.9c2.3,0.9,4.9-1,5.5-3.1C519.1,453.2,517.5,451.1,515.2,450.3L515.2,450.3z"/>
		</g>
	</g>
</g>
<g>
	<g>
		<g>
			<path class="st0" d="M197.9,452.1c-24.2,0.1-44.7,15.3-60.2,32.6c-17.1,19.2-31,41.7-42.4,64.7c-6.6,13.3-12.2,27-17,41
				c-1.9,5.5,6.8,7.9,8.7,2.4c8.1-23.8,18.9-46.5,32.3-67.8c12.1-19.4,26.2-39.5,45.4-52.6c9.9-6.8,21.2-11.3,33.3-11.4
				C203.6,461.1,203.7,452.1,197.9,452.1L197.9,452.1z"/>
		</g>
	</g>
</g>
<g>
	<g>
		<g>
			<path class="st0" d="M184.3,606.6c-33.9,0.5-67.6-12.1-92.7-34.9c-4.3-3.9-10.7,2.5-6.4,6.4c20.7,18.9,47,31.6,74.8,35.8
				c8,1.2,16.1,1.8,24.2,1.7C190.1,615.5,190.2,606.5,184.3,606.6L184.3,606.6z"/>
		</g>
	</g>
</g>
<g>
	<g>
		<g>
			<path class="st0" d="M188.1,639.2c-30.4-1.8-60.2-11.2-86.1-27.1c-7.4-4.5-14.4-9.5-21-15c-1.9-1.5-4.5-1.8-6.4,0
				c-1.6,1.6-1.9,4.8,0,6.4c24.8,20.5,54.5,34.8,86,41.1c9.1,1.8,18.3,3,27.5,3.5C193.9,648.5,193.8,639.5,188.1,639.2L188.1,639.2z
				"/>
		</g>
	</g>
</g>
<g>
	<g>
		<g>
			<path class="st0" d="M221.8,561.1c-10.7,27.4-21.9,54.8-37.2,80c-3,5,4.8,9.5,7.8,4.5c15.6-25.9,27.1-54.1,38.1-82.1
				c0.9-2.3-1-4.9-3.1-5.5C224.8,557.3,222.7,558.9,221.8,561.1L221.8,561.1z"/>
		</g>
	</g>
</g>
<g>
	<g>
		<g>
			<path class="st0" d="M242.5,727.7c-2.2-38.4-10.4-76.2-21.6-112.9c-1.7-5.5-10.4-3.2-8.7,2.4c11,35.9,19.1,72.9,21.3,110.5
				C233.9,733.5,242.9,733.5,242.5,727.7L242.5,727.7z"/>
		</g>
	</g>
</g>
<g>
	<g>
		<g>
			<path class="st0" d="M510.6,560.8c8.4,21.1,16.9,42.3,22.1,64.4c4.7,20.1,6.2,40.7,3.2,61.2c-5.6,37.9-22.6,72.7-31.5,109.8
				c-5.1,21.1-7,42.8-3.4,64.3c0.4,2.4,3.4,3.7,5.5,3.1c2.5-0.7,3.5-3.1,3.1-5.5c-6.3-37.8,7.1-74.5,19-109.8
				c6.2-18.2,12.1-36.6,15.3-55.6c3.5-20.6,3.2-41.2-0.8-61.8c-4.9-25.1-14.4-49-23.9-72.6c-0.9-2.3-3-3.8-5.5-3.1
				C511.6,555.9,509.7,558.6,510.6,560.8L510.6,560.8z"/>
		</g>
	</g>
</g>
<g>
	<g>
		<g>
			<path class="st0" d="M82.4,615.1c-19.1,39.4-34.6,80.6-46,122.9c-3.2,12-6.2,24-8.8,36.2c-1.2,5.6,7.5,8.1,8.7,2.4
				c9.1-42.3,22.1-83.8,38.8-123.6c4.7-11.2,9.8-22.3,15.1-33.3c1.1-2.2,0.6-4.9-1.6-6.2C86.6,612.4,83.5,612.9,82.4,615.1
				L82.4,615.1z"/>
		</g>
	</g>
</g>
<g>
	<g>
		<g>
			<path class="st0" d="M168.2,647.6c-16.5,35.1-32.4,70.5-47.7,106.1c-4.4,10.2-8.7,20.4-13,30.7c-0.9,2.2,1,5,3.1,5.5
				c2.6,0.7,4.6-0.9,5.5-3.1c14.8-35.3,30.2-70.4,46.2-105.3c4.5-9.8,9.1-19.6,13.7-29.4c1-2.2,0.6-4.9-1.6-6.2
				C172.4,644.9,169.2,645.4,168.2,647.6L168.2,647.6z"/>
		</g>
	</g>
</g>
<g>
	<g>
		<g>
			<path class="st0" d="M200.9,964.9c-21.9-24.4-48.2-44.1-73.9-64.3c-24.1-19-48.1-38.9-67-63.3c-10.1-13.1-18.7-27.6-24.4-43.2
				c-0.8-2.3-3.1-3.8-5.5-3.1c-2.2,0.6-4,3.2-3.1,5.5c10.6,29,29.8,53.6,51.8,74.9c23.3,22.5,49.7,41.2,74.7,61.7
				c14.5,11.9,28.4,24.3,41,38.2C198.4,975.6,204.7,969.2,200.9,964.9L200.9,964.9z"/>
		</g>
	</g>
</g>
<g>
	<g>
		<g>
			<path class="st0" d="M258.6,963.6c-33.3-48.2-69.7-94.3-108.8-137.9c-11-12.2-22.1-24.2-33.5-36.1c-4-4.2-10.4,2.2-6.4,6.4
				c40.1,41.7,77.6,85.8,112.2,132.2c9.8,13.2,19.4,26.5,28.7,40c1.4,2,3.9,2.9,6.2,1.6C259,968.6,260,965.6,258.6,963.6
				L258.6,963.6z"/>
		</g>
	</g>
</g>
<g>
	<g>
		<g>
			<path class="st0" d="M195.6,974.1c-3.8,13.8,0.1,28.5,7.7,40.3c7.9,12.2,19.3,21.3,30.5,30.3c1.9,1.5,4.5,1.9,6.4,0
				c1.6-1.6,1.9-4.8,0-6.4c-10.1-8.1-20.7-16.3-28.2-27.1c-6.9-10-11.1-22.6-7.8-34.7C205.8,970.9,197.1,968.5,195.6,974.1
				L195.6,974.1z"/>
		</g>
	</g>
</g>
<g>
	<g>
		<g>
			<path class="st0" d="M251.7,1063c-18.2-3-39.4-11.2-43.7-31.4c-1.2-5.7-9.9-3.3-8.7,2.4c5,23.3,28.6,34.2,50,37.7
				c2.4,0.4,4.8-0.6,5.5-3.1C255.4,1066.4,254.1,1063.4,251.7,1063L251.7,1063z"/>
		</g>
	</g>
</g>
<g>
	<g>
		<g>
			<path class="st0" d="M224.9,1028.9c-4.4,0.3-8.1-2.7-12.1-3.8c-4.1-1.1-8.8-1-12.1,1.9c-5.6,4.9-3.3,15.5,4.7,15.8
				c5.8,0.3,5.8-8.7,0-9c0.5,0,0.9,0.4,1.2,0.7c0.5,0.4-0.5,0.3,0-0.1c-0.1,0.1-0.1-0.4,0-0.5c0.2-0.3,0-0.1,0.5-0.3
				c0.8-0.3,1.8-0.2,2.7,0c5.4,1.1,9.6,4.7,15.3,4.3C230.6,1037.5,230.7,1028.5,224.9,1028.9L224.9,1028.9z"/>
		</g>
	</g>
</g>
<g>
	<g>
		<g>
			<path class="st0" d="M248.7,1032.4c1.9,5.1,3.2,10.3,3.7,15.7c0.2,2.7,0.2,5.4,0.1,8c-0.1,1.3-0.1,2.7-0.4,4
				c-0.3,2-0.7,0.5,1.1,0.6c0.8,0.2,1.5,0.4,2.3,0.6c0.1,0,0.2,0.1,0.2,0.1c-1.5-1.9-4.8-1.6-6.4,0c-1.9,1.9-1.5,4.5,0,6.4
				c2.9,3.5,7.6,1.7,9.8-1.5c2.2-3.2,2.2-7.8,2.3-11.6c0.3-8.4-1.2-17-4.1-24.8c-0.9-2.3-3-3.8-5.5-3.1
				C249.7,1027.4,247.9,1030.1,248.7,1032.4L248.7,1032.4z"/>
		</g>
	</g>
</g>
<g>
	<g>
		<g>
			<path class="st0" d="M267.5,1011.9c1.3,3.7,2.7,7.4,4,11.2c1.3,3.6,2.9,7.2,4,10.9c0.3,1.1-0.3,1.5-1.2,2.9
				c-1.1,1.6-2.1,3.2-3.2,4.8c-2.1,3.2-4.2,6.4-6.3,9.6c-3.2,4.8,4.6,9.4,7.8,4.5c2.5-3.7,4.9-7.4,7.4-11.1
				c2.1-3.1,4.9-6.4,4.7-10.3c-0.2-3.9-2.5-8.1-3.8-11.7c-1.6-4.3-3.1-8.7-4.7-13c-0.8-2.3-3.1-3.8-5.5-3.1
				C268.5,1007,266.7,1009.6,267.5,1011.9L267.5,1011.9z"/>
		</g>
	</g>
</g>
<g>
	<g>
		<g>
			<path class="st0" d="M307.3,1024c3.1-10.1,0.5-21.1-5-29.9c-5.6-8.9-13.8-15.7-21.9-22.3c-1.9-1.5-4.5-1.8-6.4,0
				c-1.6,1.6-1.9,4.8,0,6.4c12.7,10.3,30.3,24.8,24.5,43.4C296.9,1027.2,305.6,1029.6,307.3,1024L307.3,1024z"/>
		</g>
	</g>
</g>
<g>
	<g>
		<g>
			<path class="st0" d="M238.3,750.9c2.9,26.6,3.6,53.4-1.6,79.7c-1.1,5.7,7.6,8.1,8.7,2.4c5.3-27.2,4.9-54.7,1.9-82.1
				c-0.3-2.4-1.9-4.5-4.5-4.5C240.6,746.4,238.1,748.5,238.3,750.9L238.3,750.9z"/>
		</g>
	</g>
</g>
<g>
	<g>
		<g>
			<path class="st0" d="M509.1,869.2c-35.7,7.3-72.3,9.8-108.6,8.7c-36.6-1.2-73-6.1-108.5-14.9c-17.7-4.4-37.1-8.8-50.5-22
				c-4.1-4.1-10.5,2.3-6.4,6.4c12.5,12.2,29.3,17.7,45.8,22.1c18.1,4.8,36.4,8.6,54.8,11.4c37.3,5.7,75.2,7.7,112.9,5.3
				c21.1-1.3,42.2-4,62.9-8.3C517.1,876.8,514.7,868.1,509.1,869.2L509.1,869.2z"/>
		</g>
	</g>
</g>
<g>
	<g>
		<g>
			<path class="st0" d="M407.4,1007.6c-3.8,0.5-10,1.4-12.8-2.1c-1.5-1.9-1.8-4.8-2.1-7.2c-0.5-3.5-1-7.1-1.5-10.6
				c-2-14.4-4-28.9-6-43.3c-0.3-2.4-3.4-3.7-5.5-3.1c-2.6,0.7-3.5,3.1-3.1,5.5c2.3,16.4,4.6,32.8,6.8,49.2
				c0.9,6.8,1.7,14.3,8.1,18.3c5.5,3.5,12.4,2.8,18.6,1.9c2.4-0.3,3.7-3.4,3.1-5.5C412.2,1008.2,409.8,1007.3,407.4,1007.6
				L407.4,1007.6z"/>
		</g>
	</g>
</g>
<g>
	<g>
		<g>
			<path class="st0" d="M233.2,845.4c-3.4,20.4-13.5,39.2-22.2,57.7c-1,2.2-0.6,4.9,1.6,6.2c2,1.1,5.1,0.6,6.2-1.6
				c9-19.2,19.5-38.8,23.1-59.9c0.4-2.4-0.6-4.8-3.1-5.5C236.6,841.6,233.6,843,233.2,845.4L233.2,845.4z"/>
		</g>
	</g>
</g>
<g>
	<g>
		<g>
			<path class="st0" d="M185.4,971.6c-4.9,33-14.4,65-24.2,96.8c-9.8,31.7-20,63.5-26.4,96.1c-3.6,18.4-6,37.1-6.4,55.8
				c-0.1,5.8,8.9,5.8,9,0c0.8-32.9,7.7-65.1,16.6-96.7c8.9-31.8,19.7-63.1,28.3-95.1c4.9-18,9-36.2,11.8-54.6
				c0.4-2.4-0.6-4.8-3.1-5.5C188.8,967.9,185.8,969.2,185.4,971.6L185.4,971.6z"/>
		</g>
	</g>
</g>
<g>
	<g>
		<g>
			<path class="st0" d="M385.1,1086.8c-8.9,48.4-34,91.2-54,135.4c-5.7,12.7-11.1,25.6-15.6,38.7c-1.9,5.5,6.8,7.8,8.7,2.4
				c16-46.4,42.4-88.3,58.8-134.5c4.6-12.9,8.4-26.2,10.8-39.7c0.4-2.4-0.7-4.9-3.1-5.5C388.4,1083.1,385.5,1084.4,385.1,1086.8
				L385.1,1086.8z"/>
		</g>
	</g>
</g>
<g>
	<g>
		<g>
			<path class="st0" d="M395.9,1253.7c-6-28-5.3-57.2-5.9-85.7c-0.2-7.9-0.4-15.8-0.9-23.7c-0.3-5.8-9.3-5.8-9,0
				c1.7,29.3,0.4,58.8,3.4,88.1c0.8,8,1.9,15.9,3.6,23.7C388.4,1261.7,397.1,1259.3,395.9,1253.7L395.9,1253.7z"/>
		</g>
	</g>
</g>
<g>
	<g>
		<g>
			<path class="st0" d="M528.1,1265.5c10.6-53.9,21.3-108,25.5-162.8c3.9-50.6,2.2-102.1-9.8-151.6c-6.6-27.2-16.4-53.7-29.7-78.3
				c-2.8-5.1-10.5-0.6-7.8,4.5c23.2,42.9,34.9,91.2,38.7,139.7c4.1,52.3-0.8,104.8-9.1,156.4c-4.8,30-10.7,59.9-16.6,89.7
				C518.3,1268.7,527,1271.2,528.1,1265.5L528.1,1265.5z"/>
		</g>
	</g>
</g>
<g>
	<g>
		<g>
			<path class="st0" d="M581.3,549.1c-4.5-27.5-16.8-53.5-34.9-74.6c-5.1-6-10.7-11.5-16.7-16.6c-1.9-1.6-4.5-1.8-6.4,0
				c-1.6,1.6-1.9,4.8,0,6.4c20.3,17.2,35.6,39.9,43.9,65.1c2.4,7.2,4.1,14.6,5.4,22.1c0.4,2.4,3.4,3.7,5.5,3.1
				C580.7,553.9,581.7,551.5,581.3,549.1L581.3,549.1z"/>
		</g>
	</g>
</g>
<g>
	<g>
		<g>
			<path class="st0" d="M563.4,551.5c-11.8,10.9-24.9,20.2-39.1,27.7c-5.1,2.7-0.6,10.5,4.5,7.8c14.8-7.9,28.6-17.7,40.9-29.1
				C574.1,553.9,567.7,547.6,563.4,551.5L563.4,551.5z"/>
		</g>
	</g>
</g>
<g>
	<g>
		<g>
			<path class="st0" d="M589.9,581.9c-1.9-7-3.8-13.9-5.7-20.9c-1.5-5.6-10.2-3.2-8.7,2.4c1.9,7,3.8,13.9,5.7,20.9
				C582.8,589.9,591.4,587.5,589.9,581.9L589.9,581.9z"/>
		</g>
	</g>
</g>
<g>
	<g>
		<g>
			<path class="st0" d="M567.4,592.5c-10.1,6.5-21.2,10.9-33.1,13.3c-5.7,1.1-3.3,9.8,2.4,8.7c12.5-2.5,24.5-7.3,35.2-14.2
				C576.8,597.2,572.3,589.4,567.4,592.5L567.4,592.5z"/>
		</g>
	</g>
</g>
<g>
	<g>
		<g>
			<path class="st0" d="M324.4,740.3c-10-1.1-19.9-3.8-29.1-7.9c-2.2-1-4.8-0.6-6.2,1.6c-1.1,1.9-0.6,5.2,1.6,6.2
				c10.7,4.8,21.9,7.8,33.6,9.1c2.4,0.3,4.5-2.3,4.5-4.5C328.9,742.2,326.8,740.6,324.4,740.3L324.4,740.3z"/>
		</g>
	</g>
</g>
<g>
	<g>
		<g>
			<path class="st0" d="M638.8,819.7c-8-57.3-19.7-114-35-169.8c-4.3-15.8-9-31.5-13.9-47.2c-1.7-5.5-10.4-3.2-8.7,2.4
				c17.3,55.2,31.1,111.5,41.2,168.4c2.9,16.1,5.4,32.3,7.7,48.6c0.3,2.4,3.4,3.7,5.5,3.1C638.2,824.6,639.1,822.2,638.8,819.7
				L638.8,819.7z"/>
		</g>
	</g>
</g>
<g>
	<g>
		<g>
			<path class="st0" d="M567.1,837.3c-10.8-31.1-21.7-62.1-32.5-93.2c-1.9-5.4-10.6-3.1-8.7,2.4c10.8,31.1,21.7,62.1,32.5,93.2
				C560.3,845.1,569,842.8,567.1,837.3L567.1,837.3z"/>
		</g>
	</g>
</g>
<g>
	<g>
		<g>
			<path class="st0" d="M610.6,1013c-9.7-43.7-19.4-87.4-29.1-131.1c-2.7-12.3-5.5-24.6-8.2-36.9c-1.3-5.7-9.9-3.3-8.7,2.4
				c9.7,43.7,19.4,87.4,29.1,131.1c2.7,12.3,5.5,24.6,8.2,36.9C603.2,1021.1,611.9,1018.7,610.6,1013L610.6,1013z"/>
		</g>
	</g>
</g>
<g>
	<g>
		<g>
			<path class="st0" d="M664.6,1048.3c1.5-55.9-2.4-111.8-11.7-167c-2.6-15.7-5.7-31.3-9.2-46.8c-1.3-5.6-9.9-3.3-8.7,2.4
				c12.1,54.1,19,109.2,20.5,164.6c0.4,15.6,0.4,31.1,0,46.7C655.4,1054.1,664.4,1054.1,664.6,1048.3L664.6,1048.3z"/>
		</g>
	</g>
</g>
<g>
	<g>
		<g>
			<path class="st0" d="M612.1,1058.7c1.6-18.8,1-37.8-3.5-56.2c-1.4-5.6-10.1-3.2-8.7,2.4c4.3,17.6,4.7,35.8,3.2,53.8
				c-0.2,2.4,2.2,4.5,4.5,4.5C610.2,1063.2,611.9,1061.1,612.1,1058.7L612.1,1058.7z"/>
		</g>
	</g>
</g>
<g>
	<g>
		<g>
			<path class="st0" d="M593.5,1069.4c-8.1,20-9.7,42.4-4.7,63.4c1.3,5.6,10,3.3,8.7-2.4c-4.6-19.6-2.8-40,4.7-58.6
				c0.9-2.3-1-4.9-3.1-5.5C596.5,1065.5,594.5,1067.1,593.5,1069.4L593.5,1069.4z"/>
		</g>
	</g>
</g>
<g>
	<g>
		<g>
			<path class="st0" d="M603.8,1107.8c-1.1,19.3-4.6,38.3-10.3,56.8c-1.7,5.5,7,7.9,8.7,2.4c6-19.2,9.5-39.1,10.7-59.2
				C613.2,1102,604.2,1102,603.8,1107.8L603.8,1107.8z"/>
		</g>
	</g>
</g>
<g>
	<g>
		<g>
			<path class="st0" d="M594.5,1162.1c-3.1,7.2-6,15.8-5.6,23.8c0.2,3.9,1.8,7.5,5.5,9.2c3.7,1.7,7.5,0.2,10.4-2.3
				c2.8-2.4,4.5-5.7,6.1-9c1.9-3.8,3.7-7.7,5.4-11.6c3.4-7.8,6.5-15.7,9.2-23.7c3.1-9.1,5.6-18.4,7.7-27.8c1.2-5.6-7.4-8.1-8.7-2.4
				c-3.8,17.2-9.2,34.1-16.3,50.2c-1.7,3.9-3.6,7.8-5.5,11.6c-0.9,1.8-2.6,6.1-4.8,6.8c0.2-0.1,0.5,0.4,0.2,0.1
				c-0.4-0.5-0.2-1.6-0.2-2.1c0-1.8,0.3-3.7,0.6-5.5c0.8-4.4,2-8.7,3.8-12.8c1-2.2,0.7-4.8-1.6-6.2
				C598.8,1159.4,595.5,1159.9,594.5,1162.1L594.5,1162.1z"/>
		</g>
	</g>
</g>
<g>
	<g>
		<g>
			<path class="st0" d="M615.9,1152.7c-2,8.6-3,17.5-3.2,26.3c0,1.8,1.4,4.1,3.3,4.3c7.7,1.1,13-3.9,16.9-10
				c4-6.4,7.5-13.2,10.6-20.1c6.5-14.1,11.3-28.9,14.5-44.1c1.2-5.7-7.5-8.1-8.7-2.4c-2.7,13.3-6.7,26.3-12.1,38.7
				c-2.7,6.2-5.7,12.2-9,18.1c-1.4,2.5-2.8,5.2-4.6,7.4c-1.1,1.3-3.2,4-5.2,3.7c1.1,1.4,2.2,2.9,3.3,4.3c0.1-8.1,1-16.1,2.8-23.9
				C625.9,1149.4,617.2,1147,615.9,1152.7L615.9,1152.7z"/>
		</g>
	</g>
</g>
<g>
	<g>
		<g>
			<path class="st0" d="M669.4,1092.4c10,25.3-13.8,46.4-31.7,60c-1.9,1.5-2.9,3.9-1.6,6.2c1.1,1.9,4.2,3.1,6.2,1.6
				c11.5-8.7,23.1-17.9,30.7-30.4c7.1-11.7,10.3-26.7,5.1-39.7c-0.9-2.3-3-3.8-5.5-3.1C670.4,1087.5,668.5,1090.2,669.4,1092.4
				L669.4,1092.4z"/>
		</g>
	</g>
</g>
<g>
	<g>
		<g>
			<path class="st0" d="M679.2,1093.3c-3.7-12.3-8.7-24.2-14.8-35.5c-2.8-5.1-10.5-0.6-7.8,4.5c5.8,10.6,10.4,21.7,13.9,33.3
				C672.2,1101.2,680.9,1098.8,679.2,1093.3L679.2,1093.3z"/>
		</g>
	</g>
</g>
<g>
	<g>
		<g>
			<path class="st0" d="M595.5,533.3c-0.1-34.4-7.9-68.6-22.6-99.6c-4.1-8.7-8.8-17.1-14-25.2c-3.1-4.9-10.9-0.4-7.8,4.5
				c17.7,27.7,29.3,59.3,33.6,92c1.2,9.4,1.8,18.9,1.8,28.4C586.5,539.1,595.5,539.1,595.5,533.3L595.5,533.3z"/>
		</g>
	</g>
</g>
<g>
	<g>
		<g>
			<path class="st0" d="M531.3,1004.2c-14.9-19.4-28.2-39.9-40.1-61.3c-2.5-4.4-9.7-1.4-8.2,3.5c0.2,0.8,0.5,1.6,0.7,2.4
				c1.6,5.5,10.3,3.2,8.7-2.4c-0.2-0.8-0.5-1.6-0.7-2.4c-2.7,1.2-5.5,2.3-8.2,3.5c11.8,21.4,25.2,41.9,40.1,61.3
				c1.5,1.9,3.9,2.9,6.2,1.6C531.6,1009.2,532.8,1006.1,531.3,1004.2L531.3,1004.2z"/>
		</g>
	</g>
</g>
<g>
	<g>
		<g>
			<path class="st0" d="M401.7,1032c-1.5,7.8-2.5,15.7-3,23.6c-0.4,5.8,8.6,5.8,9,0c0.5-7.1,1.4-14.2,2.7-21.2
				c0.4-2.4-0.7-4.9-3.1-5.5C405.1,1028.2,402.2,1029.6,401.7,1032L401.7,1032z"/>
		</g>
	</g>
</g>
<g>
	<g>
		<g>
			<path class="st0" d="M267.1,926.3c-2.4,7.5-5.8,14.6-10,21.3c-3.1,4.9,4.7,9.4,7.8,4.5c4.7-7.3,8.3-15.2,10.9-23.4
				C277.6,923.2,268.9,920.8,267.1,926.3L267.1,926.3z"/>
		</g>
	</g>
</g>
<g>
	<g>
		<g>
			<path class="st0" d="M415.2,998.2c-1.1-22.3-3.4-44.6-7-66.6c-0.9-5.7-9.6-3.3-8.7,2.4c3.4,21.3,5.6,42.7,6.7,64.2
				C406.5,1004,415.5,1004,415.2,998.2L415.2,998.2z"/>
		</g>
	</g>
</g>
<g>
	<g>
		<g>
			<path class="st0" d="M395.4,894.9c-6.6-6-15.5-1.2-17.8,6.5c-2.1,7.2,0.4,16.1,8.4,17.9c6.5,1.5,13.7-2.2,15.3-8.9
				c1.7-7.2-2.9-14.2-9.6-16.6c-5.5-2-7.8,6.7-2.4,8.7c3.8,1.4,4.8,7.9-0.1,8.1c-2.7,0.1-3.4-1.9-3.3-4.3c0-1.4,1.5-6.5,3.1-5
				C393.3,905.1,399.7,898.8,395.4,894.9L395.4,894.9z"/>
		</g>
	</g>
</g>
<g>
	<g>
		<g>
			<path class="st0" d="M476.6,917.6c0.1-11.5-2.7-22.4-8-32.6c-2.7-5.1-10.5-0.6-7.8,4.5c4.6,8.7,6.8,18.1,6.8,28
				C467.5,923.4,476.5,923.4,476.6,917.6L476.6,917.6z"/>
		</g>
	</g>
</g>
<g>
	<g>
		<g>
			<path class="st0" d="M283.9,876.5c-2.2,5.9-3.4,12-3.8,18.3c-0.4,5.8,8.6,5.7,9,0c0.4-5.5,1.7-10.8,3.5-15.9
				C294.6,873.4,285.9,871.1,283.9,876.5L283.9,876.5z"/>
		</g>
	</g>
</g>
<g>
	<g>
		<g>
			<path class="st0" d="M512.8,933.4c-4.6,1.7-9.3,2.5-14.2,2.3c-5.8-0.2-5.8,8.8,0,9c5.7,0.2,11.3-0.7,16.6-2.6
				C520.6,940,518.3,931.3,512.8,933.4L512.8,933.4z"/>
		</g>
	</g>
</g>
<g>
	<g>
		<g>
			<path class="st0" d="M262.4,914.3c-9.3-4.4-18.6-8.8-27.9-13.2c-5.2-2.5-9.8,5.3-4.5,7.8c9.3,4.4,18.6,8.8,27.9,13.2
				C263.1,924.5,267.7,916.8,262.4,914.3L262.4,914.3z"/>
		</g>
	</g>
</g>
<g>
	<g>
		<g>
			<path class="st0" d="M178.5,1091.4c-9.2,40.8-18.4,81.7-27.5,122.5c-1.3,5.6,7.4,8.1,8.7,2.4c9.2-40.8,18.4-81.7,27.5-122.5
				C188.4,1088.2,179.8,1085.8,178.5,1091.4L178.5,1091.4z"/>
		</g>
	</g>
</g>
<g>
	<g>
		<g>
			<path class="st0" d="M455,394c-2.9,12.8,0.1,25.4,8.3,35.5c3.6,4.5,10-1.9,6.4-6.4c-6-7.5-8.1-17.4-6-26.8
				C464.9,390.7,456.3,388.3,455,394L455,394z"/>
		</g>
	</g>
</g>
<g>
	<g>
		<g>
			<path class="st0" d="M503.6,368.7c-12,38.3,21.8,71.7,43.5,98.9c3.6,4.5,9.9-1.9,6.4-6.4c-10.8-13.6-22.5-26.8-31.7-41.6
				c-9-14.5-14.7-31.7-9.5-48.6C514,365.5,505.3,363.2,503.6,368.7L503.6,368.7z"/>
		</g>
	</g>
</g>
<g>
	<g>
		<g>
			<path class="st0" d="M295.2,1040.4c4.9-14,1.4-29.8-8.4-40.8c-3.9-4.3-10.2,2.1-6.4,6.4c7.7,8.7,9.9,21.2,6.1,32
				C284.7,1043.5,293.3,1045.9,295.2,1040.4L295.2,1040.4z"/>
		</g>
	</g>
</g>
<g>
	<g>
		<g>
			<path class="st0" d="M593.6,1113.1c-6.2,19.2-8.6,39.6-6.8,59.7c0.2,2.4,1.9,4.5,4.5,4.5c2.3,0,4.7-2.1,4.5-4.5
				c-1.7-19.4,0.5-38.8,6.5-57.3C604,1110,595.3,1107.6,593.6,1113.1L593.6,1113.1z"/>
		</g>
	</g>
</g>
</svg>
